<?xml version="1.0" encoding="utf-8" ?>
<svg xmlns="http://www.w3.org/2000/svg" xmlns:xlink="http://www.w3.org/1999/xlink" width="1020" height="633">
	<g>
		<path fill="#91000C" transform="matrix(1.13839 0 0 1.13849 -0.00012207 0)" d="M449.551 9.51769Q454.361 9.22579 459.18 9.17047Q463.999 9.11515 468.814 9.29654Q473.63 9.47794 478.431 9.8956Q483.232 10.3133 488.006 10.9662Q492.781 11.6191 497.518 12.5057Q502.254 13.3924 506.942 14.5105Q511.629 15.6287 516.256 16.9757Q520.883 18.3227 525.438 19.8953Q529.993 21.4679 534.466 23.2624Q538.938 25.0568 543.317 27.0687Q547.696 29.0806 551.971 31.3051Q556.245 33.5296 560.406 35.9613Q564.566 38.3931 568.602 41.0262Q572.638 43.6593 576.539 46.4875Q580.441 49.3156 584.199 52.3319Q587.957 55.3483 591.562 58.5455Q595.168 61.7428 598.611 65.1133Q602.055 68.4837 605.33 72.0192Q608.604 75.5547 611.7 79.2468Q614.797 82.9388 617.708 86.7784Q620.62 90.6181 623.339 94.5961Q626.059 98.5741 628.579 102.681Q631.1 106.788 633.416 111.013Q635.732 115.239 637.837 119.573Q639.943 123.907 641.833 128.34Q643.723 132.772 645.393 137.292Q647.063 141.812 648.51 146.408Q649.956 151.005 651.174 155.666Q652.393 160.328 653.381 165.044Q654.369 169.76 655.124 174.519Q655.879 179.278 656.4 184.069Q656.92 188.859 657.205 193.669Q657.49 198.479 657.538 203.297Q657.586 208.116 657.397 212.93Q657.208 217.745 656.783 222.545Q656.358 227.345 655.698 232.118Q655.038 236.891 654.144 241.626Q653.25 246.36 652.125 251.046Q650.999 255.731 649.645 260.355Q648.291 264.98 646.711 269.532Q645.132 274.084 643.33 278.553Q641.529 283.022 639.51 287.398Q637.492 291.773 635.26 296.044Q633.029 300.315 630.591 304.471Q628.152 308.627 625.513 312.659Q622.873 316.69 620.039 320.587Q617.205 324.484 614.182 328.237Q611.16 331.99 607.957 335.59Q604.754 339.19 601.378 342.628Q598.002 346.067 594.461 349.335Q590.92 352.604 587.223 355.694Q583.526 358.785 579.681 361.69Q575.837 364.596 571.854 367.309Q567.872 370.022 563.761 372.536Q559.65 375.05 555.42 377.36Q551.191 379.669 546.853 381.768Q542.515 383.866 538.079 385.75Q533.643 387.633 529.12 389.296Q524.598 390.959 519.998 392.398Q515.399 393.837 510.735 395.048Q506.071 396.26 501.353 397.24Q496.635 398.221 491.874 398.969Q487.113 399.717 482.322 400.23Q477.53 400.744 472.719 401.021Q467.917 401.298 463.108 401.339Q458.298 401.38 453.492 401.185Q448.686 400.991 443.896 400.561Q439.105 400.131 434.342 399.466Q429.578 398.802 424.853 397.905Q420.127 397.008 415.452 395.881Q410.776 394.753 406.161 393.398Q401.546 392.043 397.004 390.463Q392.461 388.883 388.001 387.082Q383.541 385.281 379.175 383.264Q374.809 381.247 370.546 379.018Q366.284 376.79 362.137 374.355Q357.989 371.92 353.965 369.285Q349.942 366.649 346.053 363.82Q342.163 360.991 338.417 357.974Q334.672 354.958 331.078 351.761Q327.484 348.564 324.052 345.196Q320.619 341.827 317.356 338.294Q314.093 334.761 311.007 331.072Q307.921 327.383 305.019 323.548Q302.118 319.712 299.408 315.739Q296.698 311.766 294.186 307.664Q291.674 303.563 289.366 299.344Q287.058 295.124 284.96 290.797Q282.862 286.469 280.978 282.044Q279.095 277.619 277.43 273.107Q275.766 268.595 274.325 264.007Q272.884 259.418 271.669 254.765Q270.455 250.112 269.47 245.404Q268.485 240.697 267.732 235.947Q266.979 231.197 266.46 226.416Q265.941 221.635 265.657 216.834Q265.373 212.033 265.325 207.224Q265.276 202.415 265.464 197.61Q265.651 192.804 266.074 188.014Q266.497 183.223 267.154 178.459Q267.811 173.695 268.701 168.969Q269.591 164.242 270.711 159.566Q271.832 154.889 273.181 150.272Q274.529 145.656 276.102 141.111Q277.675 136.567 279.47 132.105Q281.264 127.643 283.274 123.274Q285.285 118.905 287.508 114.64Q289.73 110.375 292.159 106.224Q294.588 102.073 297.218 98.0464Q299.847 94.0195 302.671 90.1264Q305.495 86.2332 308.506 82.4832Q311.517 78.7331 314.708 75.1351Q317.9 71.5372 321.264 68.1Q324.628 64.6628 328.156 61.3946Q331.685 58.1264 335.369 55.0351Q339.054 51.9438 342.885 49.0368Q346.717 46.1298 350.687 43.4141Q354.656 40.6984 358.754 38.1806Q362.852 35.6627 367.068 33.3487Q371.285 31.0348 375.609 28.9302Q379.934 26.8257 384.357 24.9357Q388.78 23.0457 393.29 21.3747Q397.8 19.7037 402.386 18.2558Q406.973 16.8079 411.625 15.5866Q416.277 14.3652 420.983 13.3734Q425.69 12.3815 430.439 11.6216Q435.188 10.8616 439.969 10.3353Q444.75 9.80901 449.551 9.51769Z"/>
		<path fill="#FCF7E7" transform="matrix(1.13839 0 0 1.13849 -0.00012207 0)" d="M473.098 206.304L477.82 206.77C478.44 207.602 479.104 208.421 479.648 209.304L480.068 209.423C487.145 211.382 505.394 209.71 509.047 216.304C509.86 217.772 509.752 219.745 509.653 221.371C505.372 232.874 498.613 243.478 494.519 255.038C494.13 255.573 493.827 256.086 493.273 256.46C491.766 260.327 491.812 262.793 487.606 264.662C480.986 267.603 472.885 269.042 465.864 270.988C463.543 271.631 460.94 272.117 458.793 273.207C457.981 274.039 457.254 274.375 456.049 274.406C455.836 274.411 455.628 274.382 455.416 274.362C447.217 276.238 424.775 284.166 419.006 284.15C418.294 284.914 417.154 286.433 416.064 286.591C403.914 289.26 391.005 292.351 379.248 296.415C378.389 297.214 377.961 297.815 376.702 297.785C376.33 297.776 375.918 297.62 375.571 297.513C374.49 298.924 359.952 302.238 357.268 302.979C347.064 305.799 338.191 307.402 328.466 301.761C322.063 298.047 317.092 291.315 315.3 284.146C313.41 276.585 315.009 268.009 319.081 261.419C326.139 249.993 339.687 247.312 351.832 244.494C353.303 243.523 354.839 243.036 356.5 242.492C362.977 240.231 370.038 238.909 376.684 237.127C381.869 235.737 386.93 233.878 391.982 232.071L392.496 231.373L393.05 231.405C393.589 233.91 385.542 256.654 384.616 262.161C384.88 262.816 385.157 263.381 385.085 264.105C385.072 264.234 385.034 264.359 385.008 264.486C387.479 263.119 391.431 235.854 395.367 230.578C396.735 228.744 398.249 229.304 400.141 229.032C400.69 228.954 401.07 229.215 401.581 229.424C406.071 228.615 410.766 226.853 415.155 225.549Q425.397 222.45 435.783 219.872C436.856 218.867 438.181 218.515 439.542 218.04C450.168 214.193 460.301 213.145 471.199 208.332C471.98 207.911 472.544 207 473.098 206.304Z"/>
		<path fill="#FCF7E7" transform="matrix(1.13839 0 0 1.13849 -0.00012207 0)" d="M391.982 232.071C390.366 241.444 384.76 253.215 383.863 261.911C383.735 262.73 383.246 263.893 383.241 264.647C380.134 275.403 377.02 286.397 375.571 297.513C374.49 298.924 359.952 302.238 357.268 302.979C347.064 305.799 338.191 307.402 328.466 301.761C322.063 298.047 317.092 291.315 315.3 284.146C313.41 276.585 315.009 268.009 319.081 261.419C326.139 249.993 339.687 247.312 351.832 244.494C353.303 243.523 354.839 243.036 356.5 242.492C362.977 240.231 370.038 238.909 376.684 237.127C381.869 235.737 386.93 233.878 391.982 232.071Z"/>
		<path fill="#FCF7E7" transform="matrix(1.13839 0 0 1.13849 -0.00012207 0)" d="M391.982 232.071C390.366 241.444 384.76 253.215 383.863 261.911C375.254 254.874 365.679 248.764 356.5 242.492C362.977 240.231 370.038 238.909 376.684 237.127C381.869 235.737 386.93 233.878 391.982 232.071Z"/>
		<path fill="#C50300" transform="matrix(1.13839 0 0 1.13849 -0.00012207 0)" d="M351.832 244.494C353.303 243.523 354.839 243.036 356.5 242.492C365.679 248.764 375.254 254.874 383.863 261.911C383.735 262.73 383.246 263.893 383.241 264.647C380.269 262.456 376.934 260.579 373.859 258.503C366.995 253.868 359.445 247.66 351.832 244.494Z"/>
		<path fill="#B30B03" transform="matrix(1.13839 0 0 1.13849 -0.00012207 0)" d="M347.104 271.227C348.81 271.146 350.287 271.011 351.598 272.287C352.312 272.983 352.643 273.911 352.58 274.905C352.47 276.645 351.611 278.121 350.383 279.301C349.317 279.42 348.204 279.465 347.297 278.79Q347.099 278.641 346.917 278.471Q346.736 278.302 346.573 278.114Q346.41 277.926 346.268 277.723Q346.126 277.519 346.006 277.301Q345.887 277.084 345.79 276.855Q345.694 276.626 345.622 276.388Q345.551 276.15 345.505 275.906Q345.458 275.663 345.438 275.415C345.273 273.449 345.877 272.606 347.104 271.227Z"/>
		<path fill="#FCF7E7" transform="matrix(1.13839 0 0 1.13849 -0.00012207 0)" d="M474.609 208.575C476.282 208.719 477.983 209.058 479.648 209.304L480.068 209.423C487.145 211.382 505.394 209.71 509.047 216.304C509.86 217.772 509.752 219.745 509.653 221.371C505.372 232.874 498.613 243.478 494.519 255.038C491.288 251.995 472.134 238.966 468.311 237.906C466.835 235.226 473.402 213.269 474.609 208.575Z"/>
		<path fill="#FCF7E7" transform="matrix(1.13839 0 0 1.13849 -0.00012207 0)" d="M391.982 232.071L392.496 231.373L393.05 231.405C393.589 233.91 385.542 256.654 384.616 262.161C384.88 262.816 385.157 263.381 385.085 264.105C385.072 264.234 385.034 264.359 385.008 264.486C387.479 263.119 391.431 235.854 395.367 230.578C396.735 228.744 398.249 229.304 400.141 229.032C400.69 228.954 401.07 229.215 401.581 229.424L395.548 231.149C392.365 241.726 389.257 252.621 386.951 263.422C386.896 264.4 386.935 265.494 386.716 266.444C389.973 270.071 397.42 273.906 401.64 276.539C406.665 279.674 411.485 282.82 416.064 286.591C403.914 289.26 391.005 292.351 379.248 296.415C378.389 297.214 377.961 297.815 376.702 297.785C376.33 297.776 375.918 297.62 375.571 297.513C377.02 286.397 380.134 275.403 383.241 264.647C383.246 263.893 383.735 262.73 383.863 261.911C384.76 253.215 390.366 241.444 391.982 232.071Z"/>
		<path fill="#B30B03" transform="matrix(1.13839 0 0 1.13849 -0.00012207 0)" d="M391.982 232.071L392.496 231.373L393.05 231.405C393.589 233.91 385.542 256.654 384.616 262.161C384.88 262.816 385.157 263.381 385.085 264.105C385.072 264.234 385.034 264.359 385.008 264.486C387.479 263.119 391.431 235.854 395.367 230.578C396.735 228.744 398.249 229.304 400.141 229.032C400.69 228.954 401.07 229.215 401.581 229.424L395.548 231.149C392.365 241.726 389.257 252.621 386.951 263.422C386.896 264.4 386.935 265.494 386.716 266.444C384.608 268.423 379.373 290.188 379.255 293.751Q379.212 295.083 379.248 296.415C378.389 297.214 377.961 297.815 376.702 297.785C376.33 297.776 375.918 297.62 375.571 297.513C377.02 286.397 380.134 275.403 383.241 264.647C383.246 263.893 383.735 262.73 383.863 261.911C384.76 253.215 390.366 241.444 391.982 232.071Z"/>
		<path fill="#FCF7E7" transform="matrix(1.13839 0 0 1.13849 -0.00012207 0)" d="M468.311 237.906C472.134 238.966 491.288 251.995 494.519 255.038C494.13 255.573 493.827 256.086 493.273 256.46C491.766 260.327 491.812 262.793 487.606 264.662C480.986 267.603 472.885 269.042 465.864 270.988C463.543 271.631 460.94 272.117 458.793 273.207C458.613 261.901 464.726 250.748 466.612 239.686C466.883 238.94 467.72 238.41 468.311 237.906Z"/>
		<path fill="#C50300" transform="matrix(1.13839 0 0 1.13849 -0.00012207 0)" d="M468.311 237.906C472.134 238.966 491.288 251.995 494.519 255.038C494.13 255.573 493.827 256.086 493.273 256.46C488.678 254.634 470.659 243.321 466.612 239.686C466.883 238.94 467.72 238.41 468.311 237.906Z"/>
		<path fill="#FCF7E7" transform="matrix(1.13839 0 0 1.13849 -0.00012207 0)" d="M439.542 218.04C450.168 214.193 460.301 213.145 471.199 208.332C469.872 217.016 467.179 225.98 464.298 234.287C455.281 229.804 448.059 222.878 439.542 218.04Z"/>
		<path fill="#B30B03" transform="matrix(1.13839 0 0 1.13849 -0.00012207 0)" d="M473.098 206.304L477.82 206.77C478.44 207.602 479.104 208.421 479.648 209.304C477.983 209.058 476.282 208.719 474.609 208.575C473.402 213.269 466.835 235.226 468.311 237.906C467.72 238.41 466.883 238.94 466.612 239.686C464.726 250.748 458.613 261.901 458.793 273.207C457.981 274.039 457.254 274.375 456.049 274.406C455.836 274.411 455.628 274.382 455.416 274.362C455.019 265.651 461.654 247.244 463.581 237.525C454.302 231.635 444.871 226.081 435.783 219.872C436.856 218.867 438.181 218.515 439.542 218.04C448.059 222.878 455.281 229.804 464.298 234.287C467.179 225.98 469.872 217.016 471.199 208.332C471.98 207.911 472.544 207 473.098 206.304Z"/>
		<path fill="#C50300" transform="matrix(1.13839 0 0 1.13849 -0.00012207 0)" d="M386.951 263.422C391.522 265.785 416.815 281.326 419.006 284.15C418.294 284.914 417.154 286.433 416.064 286.591C411.485 282.82 406.665 279.674 401.64 276.539C397.42 273.906 389.973 270.071 386.716 266.444C386.935 265.494 386.896 264.4 386.951 263.422Z"/>
		<path fill="#C50300" transform="matrix(1.13839 0 0 1.13849 -0.00012207 0)" d="M532.107 156.297C536.827 150.346 547.711 141.773 554.582 138.682C555.734 146.692 556.969 161.162 553.628 168.43L553.907 169.339L552.72 171.464L553.043 171.567C554.069 170.531 555.053 169.324 556.4 168.72L556.893 168.481C558.505 167.688 559.747 166.776 561.692 167.356C562.563 167.615 562.699 168.09 563.129 168.798C563.627 172.291 561.064 176.606 559.047 179.291Q558.252 180.331 557.376 181.303L557.771 181.707C557.081 183.061 555.257 183.522 554.845 184.811L555.582 185.015C557.925 184.024 560.717 180.65 561.831 178.425C562.195 177.697 562.337 177.435 563.07 177.076C563.137 177.026 563.205 176.977 563.271 176.927C564.096 176.303 564.68 175.608 565.311 174.796C569.078 173.5 579.868 171.972 583.526 173.664C583.939 173.854 584.168 174.335 584.431 174.702C584.455 176.212 583.666 177.356 582.657 178.434L583.297 179.469C581.585 183.376 578.47 189.612 576.035 193.054C575.971 194.272 575.999 194.327 576.704 195.326C578.004 191.671 579.084 188.238 580.868 184.765C581.821 182.911 583.124 181.433 583.987 179.506L584.467 179.281L585.325 179.828C590.093 179.666 595.558 182.567 598.961 185.772C604.478 190.967 608.623 199.288 608.795 206.924C608.962 214.341 605.247 222.557 600.116 227.825C597.58 230.429 594.444 232.343 591.175 233.892C585.942 236.37 563.03 243.385 557.738 243.737C556.939 244.136 556.194 244.428 555.336 244.678L553.39 244.407L553.032 245.549C549.274 247.376 544.681 248.226 540.656 249.358C531.056 252.06 521.36 254.467 511.952 257.793C513.132 250.564 515.817 243.519 517.18 236.294C514.701 219.836 536.507 214.699 543.8 202.974C545.956 199.508 546.333 196.72 547.211 192.892C547.632 191.055 548.606 189.233 548.846 187.372C549.087 185.512 548.438 183.169 548.223 181.29C547.958 178.969 548.023 176.612 547.728 174.307C547.367 171.483 546.52 168.664 546.257 165.841C545.946 162.499 546.976 159.049 546.23 155.742L546.24 156.498L544.891 156.104C544.357 157.136 542.689 158.277 541.592 158.624C538.309 159.662 536.845 163.221 533.957 164.916C532.865 165.557 532.077 165.599 530.869 165.305C530.343 163.338 530.478 160.275 530.828 158.256C531.024 157.121 531.179 156.947 532.107 156.297Z"/>
		<path fill="#FCF7E7" transform="matrix(1.13839 0 0 1.13849 -0.00012207 0)" d="M585.325 179.828C590.093 179.666 595.558 182.567 598.961 185.772C604.478 190.967 608.623 199.288 608.795 206.924C608.962 214.341 605.247 222.557 600.116 227.825C597.58 230.429 594.444 232.343 591.175 233.892C585.942 236.37 563.03 243.385 557.738 243.737C558.771 241.288 560.36 226.653 559.565 224.577C564.394 222.383 568.389 218.699 571.483 214.428C572.821 212.581 575.523 208.862 575.151 206.503C578.963 203.449 577.003 196.789 578.313 192.568C579.619 188.359 582.71 183.362 585.325 179.828Z"/>
		<path fill="#FCF7E7" transform="matrix(1.13839 0 0 1.13849 -0.00012207 0)" d="M563.07 177.076C563.137 177.026 563.205 176.977 563.271 176.927C564.096 176.303 564.68 175.608 565.311 174.796C569.078 173.5 579.868 171.972 583.526 173.664C583.939 173.854 584.168 174.335 584.431 174.702C584.455 176.212 583.666 177.356 582.657 178.434C581.048 182.268 576.097 193.451 572.892 195.524C569.271 196.807 565.351 197.354 561.552 197.823C565.424 198.07 571.688 197.364 574.897 199.526C575.413 200.549 575.571 200.877 575.232 202.046C574.978 202.921 574.342 204.05 573.748 204.708C573.792 205.058 573.827 205.159 573.748 205.553C572.617 211.187 565.141 219.396 560.088 222.008C559.874 219.198 554.992 214.831 553.527 211.966C556.411 206.231 561.059 201.71 563.372 195.615C564.272 193.243 566.094 187.37 565.005 184.962L565.099 183.904C564.57 182.328 563.829 181.51 562.688 180.349C562.907 180.818 563.047 181.248 563.082 181.771C563.705 191.159 557.448 203.311 550.757 209.697C549.072 211.306 546.923 212.558 544.51 212.381C542.888 212.261 541.564 211.58 540.48 210.396C539.959 207.463 543.351 205.61 544.826 203.331C547.543 199.13 548.231 192.921 549.803 188.137C553.695 186.194 558.153 185.332 561.104 181.815C562.301 180.389 563.209 178.943 563.07 177.076Z"/>
		<path fill="#FCF7E7" transform="matrix(1.13839 0 0 1.13849 -0.00012207 0)" d="M528.184 219.047C528.537 220.445 528.866 221.975 529.687 223.18C533.587 228.898 552.038 239.423 553.39 244.407L553.032 245.549C549.274 247.376 544.681 248.226 540.656 249.358C531.056 252.06 521.36 254.467 511.952 257.793C513.132 250.564 515.817 243.519 517.18 236.294C517.867 233.108 517.671 227.623 520.097 225.194C520.875 224.416 521.36 224.254 522.418 224.208C523.317 223.793 524.352 223.578 525.28 223.204C526.37 222.765 526.804 222.206 527.215 221.131C527.471 220.46 527.708 219.881 528.065 219.254L528.184 219.047Z"/>
		<path fill="#B30B03" transform="matrix(1.13839 0 0 1.13849 -0.00012207 0)" d="M528.184 219.047C528.537 220.445 528.866 221.975 529.687 223.18C533.587 228.898 552.038 239.423 553.39 244.407L553.032 245.549C547.805 241.585 542.908 237.371 537.454 233.685C532.547 230.369 527.226 227.639 522.418 224.208C523.317 223.793 524.352 223.578 525.28 223.204C526.37 222.765 526.804 222.206 527.215 221.131C527.471 220.46 527.708 219.881 528.065 219.254L528.184 219.047Z"/>
		<path fill="#FCF7E7" transform="matrix(1.13839 0 0 1.13849 -0.00012207 0)" d="M537.724 210.21C539.098 212.198 541.149 214.587 543.711 214.919C546.207 215.242 548.579 213.778 551.189 214.205C551.207 214.288 551.222 214.371 551.243 214.453C552.102 217.87 557.05 219.102 557.495 222.938C558.514 226.176 556.26 240.856 555.336 244.678L553.39 244.407C552.038 239.423 533.587 228.898 529.687 223.18C528.866 221.975 528.537 220.445 528.184 219.047C531.08 215.844 534.42 212.984 537.724 210.21Z"/>
		<path fill="#FCF7E7" transform="matrix(1.13839 0 0 1.13849 -0.00012207 0)" d="M532.107 156.297C536.827 150.346 547.711 141.773 554.582 138.682C555.734 146.692 556.969 161.162 553.628 168.43C551.985 169.681 549.942 173.114 548.398 174.763C547.665 167.428 546.914 160.772 547.5 153.384C542.063 157.129 536.988 161.526 531.482 165.09C531.604 162.146 531.836 159.23 532.107 156.297Z"/>
		<path fill="#FCF7E7" transform="matrix(1.13839 0 0 1.13849 -0.00012207 0)" d="M556.4 168.72L556.893 168.481C558.505 167.688 559.747 166.776 561.692 167.356C562.563 167.615 562.699 168.09 563.129 168.798C563.627 172.291 561.064 176.606 559.047 179.291Q558.252 180.331 557.376 181.303Q553.57 184.123 549.63 186.753Q549.192 181.675 548.875 176.588C551.355 174.251 555.129 171.963 556.4 168.72Z"/>
		<path fill="#C50300" transform="matrix(1.13839 0 0 1.13849 -0.00012207 0)" d="M509.383 136.523C511.801 141.124 519.177 150.028 519.746 154.409L520.011 154.567L520.413 153.818L520.753 155.462C520.975 155.316 522.208 153.431 523.358 152.551C523.947 151.374 524.317 150.513 525.553 149.884C526.477 149.912 526.678 149.87 527.343 150.523C528.667 151.823 528.828 153.942 528.984 155.687C529.964 156.529 529.978 156.602 530.065 157.948C530.288 161.397 530.48 165.144 528.148 167.953C526.31 170.168 521.366 171.664 520.462 174.115L520.575 175.176C522.45 174.589 525.362 171.328 527.138 170.029C528.399 169.106 529.804 168.668 531.103 167.84C535.22 165.216 539.83 162.033 543.209 158.499C544.378 159.217 544.777 160.47 545.082 161.748C546.727 168.635 547.533 186.41 546.502 193.3C546.079 196.126 545.271 198.965 543.712 201.383C540.266 206.726 518.745 224.813 512.881 225.814C512.474 225.883 512.144 225.817 511.742 225.768C511.682 225.761 511.621 225.764 511.561 225.763L511.192 224.679L511.597 224.03C511.478 223.801 511.47 223.796 511.358 223.524C510.297 220.936 510.226 200.141 511.413 197.826C511.887 196.902 513.006 197.544 513.909 197.189C513.431 196.785 512.93 196.367 512.514 195.897C511.838 195.133 511.615 193.764 511.446 192.784C509.977 184.299 519.275 179.463 519.461 175.011C518.329 175.807 517.169 177.93 516.24 179.08C514.577 181.139 512.66 183.266 511.66 185.745C508.87 192.663 511.932 206.212 507.419 211.717C507.336 211.819 507.248 211.917 507.163 212.018C506.035 211.662 505.088 211.395 503.902 211.368L504.729 211.561L504.087 211.527L504.541 211.759C507.042 213.054 510.03 214.921 510.875 217.766C511.176 218.78 510.943 219.612 510.635 220.589L509.653 221.371C509.752 219.745 509.86 217.772 509.047 216.304C505.394 209.71 487.145 211.382 480.068 209.423L479.648 209.304C479.104 208.421 478.44 207.602 477.82 206.77L473.098 206.304C473.131 206.074 473.165 205.845 473.208 205.617L473.276 205.276C474.089 201.026 482.43 192.497 485.507 188.37C486.062 187.037 485.513 185.208 485.822 183.695C485.61 182.613 485.343 181.434 485.386 180.328C485.524 176.718 490.685 161.728 493.263 159.539C493.946 158.959 494.194 159.046 495.033 159.092L496.01 160.881C497.415 161.57 498.092 163.019 498.66 164.391L498.829 164.802C499.291 163.667 498.718 162.638 498.544 161.426L499.198 160.675C499.342 154.513 505.391 141.34 509.383 136.523Z"/>
		<path fill="#FCF7E7" transform="matrix(1.13839 0 0 1.13849 -0.00012207 0)" d="M509.383 136.523C511.801 141.124 519.177 150.028 519.746 154.409L520.011 154.567L520.413 153.818L520.753 155.462C520.975 155.316 522.208 153.431 523.358 152.551C521.743 156.875 519.749 160.786 520.044 165.53C520.167 167.514 520.749 169.577 520.582 171.552L519.652 172.787C513.823 182.55 510.063 182.835 509.219 195.649C507.228 193.942 504.393 193.031 503.29 190.506C499.938 182.832 506.086 169.181 511.379 163.569C513.35 161.479 515.55 162.073 516.673 159.008C516.72 158.88 516.764 158.751 516.809 158.623C514.526 158.382 512.981 158.001 511.072 159.512C507.832 162.078 506.006 166.596 503.679 169.967C499.654 165.447 500.931 163.225 499.198 160.675C499.342 154.513 505.391 141.34 509.383 136.523Z"/>
		<path fill="#B30B03" transform="matrix(1.13839 0 0 1.13849 -0.00012207 0)" d="M519.746 154.409L520.011 154.567L520.413 153.818L520.753 155.462C520.975 155.316 522.208 153.431 523.358 152.551C521.743 156.875 519.749 160.786 520.044 165.53C520.167 167.514 520.749 169.577 520.582 171.552L519.652 172.787C518.762 169.588 517.293 166.446 516.045 163.364C516.771 161.783 517.249 159.999 517.806 158.347C518.855 157.332 519.244 155.754 519.746 154.409Z"/>
		<path fill="#FCF7E7" transform="matrix(1.13839 0 0 1.13849 -0.00012207 0)" d="M485.507 188.37C487.935 188.681 490.443 189.145 492.893 189.023C494.048 189.129 495.53 189.165 496.597 189.622C498.963 190.635 501.534 193.441 503.668 194.992C505.341 196.209 507.286 197.054 509.158 197.918C509.003 200.561 509.102 209.078 506.954 210.814C506.843 210.904 506.722 210.982 506.606 211.066C497.816 207.975 487.087 208.048 477.82 206.77L473.098 206.304C473.131 206.074 473.165 205.845 473.208 205.617L473.276 205.276C474.089 201.026 482.43 192.497 485.507 188.37Z"/>
		<path fill="#FCF7E7" transform="matrix(1.13839 0 0 1.13849 -0.00012207 0)" d="M485.822 183.695C485.61 182.613 485.343 181.434 485.386 180.328C485.524 176.718 490.685 161.728 493.263 159.539C493.946 158.959 494.194 159.046 495.033 159.092L496.01 160.881C497.51 164.583 499.765 167.855 501.962 171.17C501.346 174.366 499.643 185.707 497.68 187.335C497.512 187.881 497.533 188.332 496.998 188.604C495.901 189.161 494.13 188.837 492.893 189.023C490.443 189.145 487.935 188.681 485.507 188.37C486.062 187.037 485.513 185.208 485.822 183.695Z"/>
		<path fill="#B30B03" transform="matrix(1.13839 0 0 1.13849 -0.00012207 0)" d="M485.822 183.695C489.3 186.16 493.857 185.75 497.68 187.335C497.512 187.881 497.533 188.332 496.998 188.604C495.901 189.161 494.13 188.837 492.893 189.023C490.443 189.145 487.935 188.681 485.507 188.37C486.062 187.037 485.513 185.208 485.822 183.695Z"/>
		<path fill="#FCF7E7" transform="matrix(1.13839 0 0 1.13849 -0.00012207 0)" d="M512.22 197.871C516.671 201.134 521.163 204.22 526.443 206.015C529.221 207.015 531.946 207.926 534.819 208.625C531.53 212.069 517.625 224.716 513.065 224.739C512.402 224.742 512.116 224.394 511.597 224.03C512.899 216.45 510.855 206.766 512.22 197.871Z"/>
		<path fill="#FCF7E7" transform="matrix(1.13839 0 0 1.13849 -0.00012207 0)" d="M523.358 152.551C523.947 151.374 524.317 150.513 525.553 149.884C526.477 149.912 526.678 149.87 527.343 150.523C528.667 151.823 528.828 153.942 528.984 155.687L528.892 165.916C526.736 167.821 523.456 171.202 520.582 171.552C520.749 169.577 520.167 167.514 520.044 165.53C519.749 160.786 521.743 156.875 523.358 152.551Z"/>
		<path fill="#FCF7E7" transform="matrix(1.13839 0 0 1.13849 -0.00012207 0)" d="M543.146 160.011C543.626 160.331 543.567 160.217 543.856 160.655C544.496 161.624 544.539 164.657 544.691 165.925C545.833 175.486 547.554 186.6 544.969 196.045C543.604 201.035 541.292 203.91 536.844 206.424C531.042 204.94 525.886 203.24 520.665 200.311C518.7 199.165 516.299 198.013 514.718 196.371C513.095 194.685 512.238 192.539 512.364 190.185C513.008 178.161 535.091 166.903 543.146 160.011Z"/>
		<path fill="#FCF7E7" transform="matrix(1.13839 0 0 1.13849 -0.00012207 0)" d="M477.442 287.069L500.002 291.055C496.168 296.878 478.523 314.952 472.996 319.294C463.194 317.57 453.424 315.1 443.73 312.842C434.7 311.02 425.691 309.182 416.633 307.492L417.114 306.956L416.186 306.881L416.101 307.333L414.946 306.921L415.083 306.191C416.026 305.347 417.245 304.886 418.434 304.489C425.127 302.249 432.253 300.972 439.035 298.834C451.665 294.853 464.446 289.605 477.442 287.069Z"/>
		<path fill="#FCF7E7" transform="matrix(1.13839 0 0 1.13849 -0.00012207 0)" d="M387.377 177.906C391.302 176.968 395.845 176.999 399.865 176.731L402.281 208.708C402.665 213.813 403.432 219.131 403.398 224.241C395.21 227.023 384.513 229.906 375.998 231.245C379.993 213.529 384.209 195.792 387.377 177.906Z"/>
		<path fill="#FCF7E7" transform="matrix(1.13839 0 0 1.13849 -0.00012207 0)" d="M534.677 299.142C540.889 300.167 546.793 301.669 550.665 307.088Q551.137 307.743 551.541 308.444Q551.944 309.143 552.275 309.881Q552.606 310.618 552.86 311.385Q553.114 312.152 553.289 312.941Q553.464 313.73 553.558 314.532Q553.653 315.334 553.665 316.142Q553.678 316.95 553.608 317.755Q553.539 318.56 553.388 319.354Q553.223 320.19 552.977 321.006Q552.731 321.821 552.406 322.609Q552.08 323.396 551.679 324.148Q551.278 324.899 550.804 325.608Q550.331 326.316 549.79 326.975Q549.25 327.633 548.647 328.235Q548.044 328.837 547.385 329.377Q546.725 329.917 546.016 330.389C540.462 334.092 534.693 332.833 528.592 331.631C521.911 330.267 514.367 329.363 508.137 326.574C511.306 322.581 515.393 318.935 518.926 315.225C523.999 309.898 529.01 303.816 534.677 299.142Z"/>
		<path fill="#FCF7E7" transform="matrix(1.13839 0 0 1.13849 -0.00012207 0)" d="M371.954 140.215C378.422 141.221 385.336 141.312 391.875 141.182C395.09 141.118 398.692 140.663 401.864 141.063C402.354 142.482 401.855 143.528 401.406 144.884C401.667 146.555 402.786 147.657 403.839 148.905C404.874 150.745 403.597 155.022 403.029 157.013C401.687 161.71 399.674 166.496 398.869 171.316C399.674 172.811 399.924 175.051 399.865 176.731C395.845 176.999 391.302 176.968 387.377 177.906C386.438 176.064 384.867 174.445 383.548 172.856C380.644 169.971 382.582 154.405 381.745 149.934C381.119 148.954 380.337 148.291 379.467 147.544C375.749 145.75 373.785 143.952 371.954 140.215Z"/>
		<path fill="#FCF7E7" transform="matrix(1.13839 0 0 1.13849 -0.00012207 0)" d="M371.954 140.215C378.422 141.221 385.336 141.312 391.875 141.182C395.09 141.118 398.692 140.663 401.864 141.063C402.354 142.482 401.855 143.528 401.406 144.884C401.667 146.555 402.786 147.657 403.839 148.905C399.854 149.481 383.443 149.141 381.745 149.934C381.119 148.954 380.337 148.291 379.467 147.544C375.749 145.75 373.785 143.952 371.954 140.215Z"/>
		<path fill="#B30B03" transform="matrix(1.13839 0 0 1.13849 -0.00012207 0)" d="M401.406 144.884C401.667 146.555 402.786 147.657 403.839 148.905C399.854 149.481 383.443 149.141 381.745 149.934C381.119 148.954 380.337 148.291 379.467 147.544C383.487 147.224 399.149 147.209 401.406 144.884Z"/>
		<path fill="#C50300" transform="matrix(1.13839 0 0 1.13849 -0.00012207 0)" d="M398.869 171.316C399.674 172.811 399.924 175.051 399.865 176.731C395.845 176.999 391.302 176.968 387.377 177.906C386.438 176.064 384.867 174.445 383.548 172.856C388.611 172.035 393.787 172.09 398.869 171.316Z"/>
		<path fill="#FEFEFE" transform="matrix(1.13839 0 0 1.13849 -0.00012207 0)" d="M393.442 55.4204C393.54 55.5016 393.649 55.5713 393.737 55.6639C395.191 57.1981 394.887 61.5281 395.839 63.6706C398.646 69.9907 405.485 74.4066 406.086 81.9015C406.362 85.3432 404.765 89.024 402.513 91.5768C399.781 94.6743 396.277 94.9302 392.427 95.1708C388.537 94.9633 384.774 93.9831 382.095 90.9449C379.778 88.3176 379.091 84.7925 379.366 81.3774C380.072 72.6203 386.807 61.0711 393.442 55.4204Z"/>
		<path fill="#91000C" transform="matrix(1.13839 0 0 1.13849 -0.00012207 0)" d="M392.204 68.5318C394.109 70.3569 396.183 74.5337 397.304 76.9338C398.346 79.1658 399.265 82.1146 398.212 84.5039C397.337 86.4892 395.04 87.1647 393.171 87.8288C391.611 87.7109 390.155 87.5164 388.815 86.6223C387.549 85.778 386.711 84.5437 386.456 83.0367C385.601 77.9872 389.574 72.5219 392.204 68.5318Z"/>
		<path fill="#FEFEFE" transform="matrix(1.13839 0 0 1.13849 -0.00012207 0)" d="M461.415 329.388Q464.184 329.659 466.908 330.223C471.832 331.202 510.399 338.853 511.719 340.829C511.365 341.52 510.932 341.989 510.348 342.497C502.256 349.535 485.199 348.169 475.234 347.443C471.315 347.242 464.771 347.239 461.417 345.042C460.351 344.344 460.273 344.031 460.06 342.862C460.587 341.982 460.856 341.548 461.941 341.281C466.599 340.134 487.913 345.717 492.643 342.902L492.767 342.118C489.302 337.941 468.656 336.166 462.474 334.054C461.179 333.611 460.689 333.074 460.116 331.904C460.316 330.755 460.601 330.222 461.415 329.388Z"/>
		<path fill="#FEFEFE" transform="matrix(1.13839 0 0 1.13849 -0.00012207 0)" d="M422.397 54.5644L422.949 55.3655C423.496 59.0645 421.885 62.7591 422.312 66.4287C423.405 75.8147 431.128 89.3252 427.501 98.8779C427.109 99.9116 426.537 100.899 425.514 101.34C424.243 100.59 423.618 98.8296 422.95 97.5525Q422.204 96.4032 421.436 95.2686C416.246 87.4954 410.593 79.9613 412.652 70.0655C413.779 64.6455 417.668 57.7199 422.397 54.5644Z"/>
		<path fill="#FCF7E7" transform="matrix(1.13839 0 0 1.13849 -0.00012207 0)" d="M504.124 292.942C508.225 292.861 512.165 293.462 516.17 294.269C510.614 302.76 497.689 314.397 490.333 322.318C487.092 323.594 482.287 321.746 479.105 320.784C482.875 313.553 497.764 300.075 504.124 292.942Z"/>
		<path fill="#FEFEFE" transform="matrix(1.13839 0 0 1.13849 -0.00012207 0)" d="M549.964 332.374L550.399 332.429L550.747 332.987C549.896 334.959 548.473 336.697 547.085 338.322C540.066 346.541 529.7 355.751 518.495 356.551C515.649 356.755 509.947 356.354 507.831 354.34C507.132 353.675 507.045 353.481 506.979 352.543C507.544 351.814 508.053 351.257 508.785 350.694C514.015 350.77 525.198 350.135 529.135 346.716C529.389 344.367 521.738 343.089 520.295 340.723C522.738 337.589 530.203 339.932 533.819 339.569C540.04 338.945 544.864 335.679 549.964 332.374Z"/>
		<path fill="#FCF7E7" transform="matrix(1.13839 0 0 1.13849 -0.00012207 0)" d="M522.134 295.767C524.854 296.146 527.435 296.649 530.098 297.32C522.12 307.395 512.137 316.603 503.012 325.667C500.013 325.749 497.764 325.163 494.985 324.036C496.905 320.655 519.792 296.612 522.134 295.767Z"/>
		<path fill="#FEFEFE" transform="matrix(1.13839 0 0 1.13849 -0.00012207 0)" d="M344.588 126.218C345.049 126.486 344.965 126.379 345.251 126.711C346.292 127.921 347.261 129.422 348.617 130.302C350.925 131.799 354.497 131.71 357.189 131.858C367.766 132.436 378.541 131.792 389.15 131.883Q404.264 132.063 419.378 132.011C424.748 131.998 430.529 132.415 435.82 131.476C436.305 130.026 436.632 128.26 437.882 127.298C439.157 127.492 439.39 127.897 440.322 128.75C439.801 130.088 439.328 131.446 438.234 132.433C436.996 133.549 435.488 133.89 433.886 134.11C424.434 135.409 414.162 134.799 404.625 134.763C391.356 134.712 378.072 134.85 364.805 134.634C359.083 134.541 348.92 134.428 344.743 130.123C344.011 128.779 344.35 127.653 344.588 126.218Z"/>
		<path fill="#FEFEFE" transform="matrix(1.13839 0 0 1.13849 -0.00012207 0)" d="M384.07 122.234C391.166 121.85 398.444 121.625 405.544 121.991C409.847 122.214 414.112 122.886 418.424 123.086C420.943 123.203 424.447 122.585 426.802 123.18C427.642 123.393 427.718 123.72 428.145 124.41C426.175 126.276 404.499 125.604 400.969 125.596C392.086 125.535 364.55 127.147 357.876 124.49C357.127 124.192 356.987 124.174 356.67 123.452C359.118 122.815 362.923 123.94 365.586 123.901C371.671 123.81 377.958 122.61 384.07 122.234Z"/>
		<path fill="#FEFEFE" transform="matrix(1.13839 0 0 1.13849 -0.00012207 0)" d="M408.541 308.085L408.756 308.333L408.679 309.212C407.263 311.32 404.882 312.937 402.849 314.424C398.677 317.476 392.466 322.949 387.419 323.926C386.11 324.179 384.666 323.891 383.363 323.688C383.218 323.503 383.144 323.431 383.05 323.186C382.39 321.467 382.034 318.461 383.009 316.858C385.854 312.184 402.976 309.449 408.541 308.085Z"/>
		<path fill="#FEFEFE" transform="matrix(1.13839 0 0 1.13849 -0.00012207 0)" d="M430.596 105.269C430.746 105.318 430.907 105.341 431.046 105.416C432.034 105.946 432.024 106.642 432.294 107.623C431.852 108.704 431.635 108.981 430.533 109.455C424.243 112.16 370.155 111.096 360.329 110.082C358.159 109.859 356.272 109.41 354.238 108.63C353.258 108.014 352.633 107.533 352.021 106.54L352.438 105.841C354.339 105.789 355.932 107.822 357.915 108.226C363.437 109.351 370.18 108.398 375.884 108.431L404.714 108.546C410.813 108.56 417.171 108.91 423.225 108.102C426.304 107.691 427.995 106.992 430.596 105.269Z"/>
		<path fill="#FEFEFE" transform="matrix(1.13839 0 0 1.13849 -0.00012207 0)" d="M513.942 229.807C514.51 229.985 514.702 230.246 515.071 230.699C515.825 236.645 510.143 252.446 507.951 258.584C505.182 260.346 502.468 261.026 499.297 261.674C498.665 261.635 498.41 261.505 497.896 261.141C497.901 260.061 508.209 241.636 509.783 238.483C511.211 235.624 512.247 232.514 513.942 229.807Z"/>
		<path fill="#FEFEFE" transform="matrix(1.13839 0 0 1.13849 -0.00012207 0)" d="M377.18 316.854L377.522 316.989C378.05 318.274 377.743 319.915 377.419 321.262C377.091 322.632 376.49 324.808 375.183 325.527C371.45 327.579 362.626 325.729 358.613 324.592L356.291 323.543C355.571 322.592 355.449 322.621 355.558 321.371C358.001 319.104 373.017 317.647 377.18 316.854Z"/>
		<path fill="#FCF7E7" transform="matrix(1.13839 0 0 1.13849 -0.00012207 0)" d="M572.603 256.424C575.806 255.168 579.526 253.156 582.985 253.034L584.004 253.499C584.343 254.665 584.385 255.483 583.72 256.608C582.053 259.431 576.145 261.482 573.024 262.02C572.914 262.039 572.803 262.047 572.692 262.06C572.523 262.193 572.351 262.344 572.161 262.452C570.909 263.161 569.798 263.203 568.474 262.843C567.693 261.894 567.62 261.726 567.47 260.507C568.549 257.378 569.679 257.988 572.141 256.677C572.296 256.594 572.449 256.508 572.603 256.424Z"/>
		<path fill="#FEFEFE" transform="matrix(1.13839 0 0 1.13849 -0.00012207 0)" d="M572.603 256.424C573.404 258.133 573.111 260.271 572.692 262.06C572.523 262.193 572.351 262.344 572.161 262.452C570.909 263.161 569.798 263.203 568.474 262.843C567.693 261.894 567.62 261.726 567.47 260.507C568.549 257.378 569.679 257.988 572.141 256.677C572.296 256.594 572.449 256.508 572.603 256.424Z"/>
		<path fill="#FEFEFE" transform="matrix(1.13839 0 0 1.13849 -0.00012207 0)" d="M554.603 263.108C556.378 262.763 559.741 261.754 561.326 262.72C561.853 263.041 561.927 263.436 562.066 264.022C562.215 264.652 562.086 265.676 561.698 266.211C559.689 268.987 554.321 269.43 551.12 270.126C550.524 270.322 549.867 270.4 549.249 270.517C547.898 269.003 548.462 266.22 548.55 264.276L554.603 263.108Z"/>
		<path fill="#E8D5CE" transform="matrix(1.13839 0 0 1.13849 -0.00012207 0)" d="M548.55 264.276L554.603 263.108C553.119 265.201 552.173 267.791 551.12 270.126C550.524 270.322 549.867 270.4 549.249 270.517C547.898 269.003 548.462 266.22 548.55 264.276Z"/>
		<path fill="#FEFEFE" transform="matrix(1.13839 0 0 1.13849 -0.00012207 0)" d="M605.68 241.688L607.336 241.808L607.726 242.6C607.666 243.698 607.566 244.605 606.845 245.483C604.159 248.757 596.537 250.856 592.473 251.373L591.678 250.98C591.538 250.246 591.5 249.717 591.752 248.996C592.944 245.576 602.34 243.194 605.68 241.688Z"/>
		<path fill="#FEFEFE" transform="matrix(1.13839 0 0 1.13849 -0.00012207 0)" d="M395.508 100.387C400.258 100.317 405.733 99.6748 410.388 100.225C411.323 100.336 411.791 100.402 412.338 101.147C412.245 101.241 412.158 101.341 412.06 101.429C410.477 102.839 392.584 102.309 389.253 102.324C382.312 102.417 375.545 102.612 368.736 101.076C375.981 99.9167 387.801 100.559 395.508 100.387Z"/>
		<path fill="#E8D5CE" transform="matrix(1.13839 0 0 1.13849 -0.00012207 0)" d="M524.489 270.039C525.303 269.937 526.763 269.583 527.512 269.946C527.77 270.07 528.235 274.273 528.629 275.239C528.677 275.358 528.731 275.475 528.782 275.592C528.023 276.413 525.437 276.738 524.229 277.102C523.443 277.338 522.486 277.347 521.663 277.428C520.662 276.861 520.234 276.584 519.921 275.376C519.635 274.27 520.176 272.603 520.812 271.661C521.641 270.434 523.163 270.368 524.489 270.039Z"/>
		<path fill="#E8D5CE" transform="matrix(1.13839 0 0 1.13849 -0.00012207 0)" d="M533.823 268.271C535.047 268.174 535.117 268.005 536.096 268.839C536.694 271.03 536.23 272.533 535.329 274.518C534.592 275.094 534.026 275.334 533.128 275.586C532.078 275.728 531.255 275.83 530.215 275.592C529.536 274.93 528.976 274.31 528.724 273.371C528.398 272.157 529.003 270.827 529.672 269.836C530.471 268.654 532.514 268.517 533.823 268.271Z"/>
		<path fill="#FEFEFE" transform="matrix(1.13839 0 0 1.13849 -0.00012207 0)" d="M533.823 268.271C535.047 268.174 535.117 268.005 536.096 268.839C536.694 271.03 536.23 272.533 535.329 274.518C534.592 275.094 534.026 275.334 533.128 275.586C533.015 273.006 533.115 270.766 533.823 268.271Z"/>
		<path fill="#FEFEFE" transform="matrix(1.13839 0 0 1.13849 -0.00012207 0)" d="M509.393 274.005C511.531 272.92 513.815 272.351 516.114 271.717C516.185 274.083 516.31 276.46 516.178 278.824L510.389 280.386C510.058 278.437 509.899 276.15 509.225 274.301L509.393 274.005Z"/>
		<path fill="#E8D5CE" transform="matrix(1.13839 0 0 1.13849 -0.00012207 0)" d="M546.514 264.727L547.592 264.88C548.275 266.632 547.95 269.042 547.907 270.925L543.042 272.37L542.426 272.108C542.02 271.506 541.605 270.88 541.454 270.156C541.194 268.916 541.763 267.656 542.439 266.65C543.478 265.103 544.803 265.037 546.514 264.727Z"/>
		<path fill="#FEFEFE" transform="matrix(1.13839 0 0 1.13849 -0.00012207 0)" d="M493.381 276.307C494.959 275.995 496.629 275.409 498.145 276.114C498.796 277.006 499.242 277.436 499.056 278.615C498.844 279.952 496.847 282.93 495.664 283.553C494.959 283.924 493.828 283.894 493.043 283.918L492.959 283.394C493.081 281.039 493.125 278.65 493.381 276.307Z"/>
		<path fill="#FEFEFE" transform="matrix(1.13839 0 0 1.13849 -0.00012207 0)" d="M507.382 280.611C505.867 280.906 504.448 281.368 502.973 280.742C502.139 279.979 501.769 279.559 501.483 278.456C501.596 277.195 502.072 276.355 502.991 275.474C504.879 273.666 506.963 273.978 509.393 274.005L509.225 274.301L508.217 274.623C507.359 276.384 507.476 278.677 507.382 280.611Z"/>
		<path fill="#FEFEFE" transform="matrix(1.13839 0 0 1.13849 -0.00012207 0)" d="M487.996 279.611C488.183 279.891 488.373 280.174 488.54 280.467C489.212 281.644 489.366 282.302 489.058 283.561C488.47 284.042 487.966 284.362 487.194 284.452C485.777 284.618 483.939 284.161 482.865 283.189C481.987 282.394 481.984 281.874 481.939 280.784C482.592 279.446 483.535 278.874 484.728 278.081C485.965 278.217 486.919 278.091 487.849 278.977L487.996 279.611Z"/>
		<path fill="#E8D5CE" transform="matrix(1.13839 0 0 1.13849 -0.00012207 0)" d="M492.108 277.075C491.71 279.025 491.053 281.244 492.152 283.058L492.959 283.394L493.043 283.918L492.153 283.921C491.63 283.616 491.375 283.582 491.089 283.031C490.265 281.444 489.774 280.168 487.996 279.611L487.849 278.977C486.919 278.091 485.965 278.217 484.728 278.081C487.186 277.744 489.645 277.371 492.108 277.075Z"/>
	</g>
	<g>
		<path fill="#FEFEFE" transform="matrix(1.13839 0 0 1.13849 -0.00012207 0)" d="M0 0L895.234 0C896.292 1.6624 895.996 4.0371 895.998 5.95105L896.001 403.278L896.003 512.333L895.998 541.589C895.997 545.594 896.549 550.571 895.878 554.476C895.784 555.026 895.531 555.533 895.234 556L0 556L0 0ZM472.719 401.021Q477.53 400.744 482.322 400.23Q487.113 399.717 491.874 398.969Q496.635 398.221 501.353 397.24Q506.071 396.26 510.735 395.048Q515.399 393.837 519.998 392.398Q524.597 390.959 529.12 389.296Q533.643 387.633 538.079 385.75Q542.515 383.866 546.853 381.768Q551.19 379.669 555.42 377.36Q559.65 375.05 563.761 372.536Q567.872 370.022 571.854 367.309Q575.837 364.596 579.681 361.69Q583.526 358.785 587.223 355.695Q590.92 352.604 594.461 349.335Q598.002 346.067 601.378 342.629Q604.754 339.19 607.957 335.59Q611.16 331.99 614.182 328.237Q617.205 324.484 620.039 320.587Q622.873 316.69 625.513 312.659Q628.152 308.627 630.591 304.471Q633.029 300.315 635.26 296.044Q637.492 291.773 639.51 287.398Q641.529 283.022 643.33 278.553Q645.132 274.084 646.711 269.532Q648.291 264.98 649.645 260.355Q650.999 255.731 652.125 251.046Q653.25 246.36 654.144 241.626Q655.038 236.891 655.698 232.118Q656.358 227.345 656.783 222.545Q657.208 217.745 657.397 212.93Q657.586 208.116 657.538 203.297Q657.49 198.479 657.205 193.669Q656.92 188.859 656.4 184.069Q655.879 179.278 655.124 174.519Q654.369 169.76 653.381 165.044Q652.393 160.328 651.174 155.666Q649.956 151.004 648.509 146.408Q647.063 141.812 645.393 137.292Q643.723 132.772 641.833 128.34Q639.943 123.907 637.837 119.573Q635.732 115.239 633.416 111.013Q631.1 106.788 628.579 102.681Q626.059 98.5741 623.339 94.5961Q620.62 90.6181 617.708 86.7785Q614.797 82.9388 611.7 79.2468Q608.604 75.5547 605.33 72.0192Q602.055 68.4837 598.611 65.1133Q595.168 61.7428 591.562 58.5455Q587.957 55.3483 584.199 52.332Q580.441 49.3156 576.539 46.4875Q572.638 43.6593 568.602 41.0262Q564.566 38.3931 560.406 35.9613Q556.245 33.5296 551.971 31.3051Q547.696 29.0806 543.317 27.0687Q538.938 25.0568 534.466 23.2624Q529.993 21.468 525.438 19.8953Q520.883 18.3227 516.256 16.9757Q511.629 15.6287 506.942 14.5105Q502.254 13.3924 497.518 12.5057Q492.781 11.6191 488.006 10.9662Q483.232 10.3133 478.431 9.8956Q473.63 9.47794 468.814 9.29655Q463.999 9.11515 459.18 9.17047Q454.361 9.22579 449.551 9.51769Q444.75 9.809 439.969 10.3353Q435.188 10.8616 430.439 11.6215Q425.69 12.3815 420.983 13.3734Q416.277 14.3652 411.625 15.5866Q406.973 16.8079 402.386 18.2558Q397.8 19.7037 393.29 21.3747Q388.78 23.0457 384.357 24.9357Q379.934 26.8257 375.609 28.9302Q371.285 31.0347 367.068 33.3487Q362.852 35.6627 358.754 38.1806Q354.656 40.6984 350.687 43.4141Q346.717 46.1298 342.885 49.0368Q339.054 51.9438 335.369 55.0351Q331.685 58.1264 328.156 61.3946Q324.628 64.6628 321.264 68.1Q317.9 71.5372 314.708 75.1351Q311.517 78.7331 308.506 82.4831Q305.495 86.2332 302.671 90.1263Q299.847 94.0195 297.218 98.0464Q294.588 102.073 292.159 106.224Q289.73 110.375 287.508 114.64Q285.285 118.905 283.274 123.274Q281.264 127.643 279.47 132.105Q277.675 136.567 276.102 141.111Q274.529 145.656 273.181 150.272Q271.832 154.889 270.711 159.566Q269.591 164.242 268.701 168.969Q267.811 173.695 267.154 178.459Q266.497 183.223 266.074 188.014Q265.651 192.804 265.464 197.61Q265.276 202.415 265.325 207.224Q265.373 212.033 265.657 216.834Q265.941 221.635 266.46 226.416Q266.979 231.197 267.732 235.947Q268.485 240.697 269.47 245.404Q270.455 250.112 271.669 254.765Q272.884 259.418 274.325 264.007Q275.766 268.595 277.43 273.107Q279.095 277.619 280.978 282.044Q282.862 286.469 284.96 290.797Q287.058 295.124 289.366 299.344Q291.674 303.563 294.186 307.664Q296.698 311.766 299.408 315.739Q302.118 319.712 305.019 323.548Q307.921 327.383 311.007 331.072Q314.093 334.761 317.356 338.294Q320.619 341.827 324.052 345.196Q327.484 348.564 331.078 351.761Q334.672 354.958 338.418 357.974Q342.163 360.991 346.053 363.82Q349.942 366.649 353.965 369.285Q357.989 371.92 362.137 374.355Q366.284 376.79 370.546 379.018Q374.808 381.247 379.175 383.264Q383.541 385.281 388.001 387.082Q392.461 388.883 397.004 390.463Q401.546 392.043 406.161 393.398Q410.776 394.753 415.452 395.881Q420.127 397.008 424.853 397.905Q429.578 398.802 434.342 399.466Q439.105 400.131 443.896 400.561Q448.686 400.991 453.492 401.185Q458.298 401.38 463.108 401.339Q467.917 401.298 472.719 401.021Z"/>
	</g>
</svg>
